<svg xmlns="http://www.w3.org/2000/svg" xmlns:xlink="http://www.w3.org/1999/xlink" id="Layer_1" viewBox="0 0 250 67"><defs><clipPath id="clippath"><path d="M95.52,23.05c0,12.23,9.92,22.15,22.15,22.15s22.15-9.92,22.15-22.15S129.91.9,117.68.9s-22.15,9.92-22.15,22.15" style="fill:none;"></path></clipPath></defs><path d="M128.54,5.35c9.54-4.38,21.43-5.15,27.78-1.32-5.47-2.7-14.52-3.48-22.04,2.23-25.07,19.03-20.29,5.77-5.74-.91" style="fill:#a2c03a;"></path><path d="M.83,13.08c-.07-2.37-.18-4.75-.33-7.13.62.07,1.3.14,2.04.19.73.06,1.56.08,2.48.08s1.74-.03,2.48-.08c.73-.06,1.41-.12,2.04-.19-.15,2.39-.26,4.77-.33,7.13-.07,2.37-.11,5.08-.11,8.13v7.49c0,2.09,0,4.11.03,6.06.02,1.95.05,3.64.08,5.07,2.09,0,4.19-.05,6.28-.17,2.09-.11,4.2-.29,6.34-.55-.07.4-.13.77-.17,1.1-.04.33-.06.79-.06,1.38s.02,1.05.06,1.38c.04.33.09.61.17.83-.99-.04-2.21-.06-3.66-.08-1.45-.02-3.44-.03-5.98-.03H3.45c-.83,0-1.45,0-1.87.03-.42.02-.78.05-1.07.08.15-2.28.26-4.6.33-6.97.07-2.37.11-5.08.11-8.13v-7.49c0-3.05-.04-5.76-.11-8.13Z" style="fill:#636569;"></path><path d="M27.18,13.08c-.06-2.37-.16-4.75-.29-7.13,1.65.04,3.29.09,4.9.17,1.62.07,3.25.11,4.9.11,2.72,0,5.13-.03,7.25-.08,2.11-.06,3.53-.12,4.27-.19-.15.59-.22,1.36-.22,2.31,0,.59.02,1.05.06,1.38.04.33.09.7.17,1.1-1.07-.07-2.23-.15-3.5-.22-1.27-.07-2.5-.15-3.69-.22-1.19-.07-2.27-.13-3.22-.17-.96-.04-1.63-.05-2.04-.05-.15,2.02-.23,4.02-.25,6.01-.02,1.98-.03,3.99-.03,6.01,2.39-.04,4.55-.09,6.47-.17,1.93-.07,3.94-.17,6.03-.28-.11.63-.18,1.1-.22,1.43-.04.33-.06.68-.06,1.05,0,.29.03.6.08.91.06.31.12.76.19,1.35-4.19-.33-8.36-.5-12.51-.5,0,1.18,0,2.35-.03,3.53-.02,1.18-.03,2.35-.03,3.53,0,2.39.06,4.68.17,6.89,2.09,0,4.19-.05,6.28-.17,2.09-.11,4.2-.29,6.34-.55-.07.4-.13.77-.17,1.1-.04.33-.06.79-.06,1.38s.02,1.05.06,1.38c.04.33.09.61.17.83-.99-.04-2.21-.06-3.66-.08-1.45-.02-3.44-.03-5.98-.03h-8.73c-.83,0-1.45,0-1.87.03-.42.02-.78.05-1.07.08.13-2.28.22-4.6.29-6.97.06-2.37.1-5.08.1-8.13v-7.49c0-3.05-.03-5.76-.1-8.13Z" style="fill:#636569;"></path><path d="M54.07,13.08c-.06-2.37-.16-4.75-.29-7.13,1.65.04,3.29.09,4.9.17,1.62.07,3.25.11,4.9.11,2.72,0,5.13-.03,7.25-.08,2.11-.06,3.53-.12,4.27-.19-.15.59-.22,1.36-.22,2.31,0,.59.02,1.05.06,1.38.04.33.09.7.17,1.1-1.07-.07-2.23-.15-3.5-.22-1.27-.07-2.5-.15-3.69-.22-1.19-.07-2.27-.13-3.22-.17-.96-.04-1.63-.05-2.04-.05-.15,2.02-.23,4.02-.25,6.01-.02,1.98-.03,3.99-.03,6.01,2.39-.04,4.55-.09,6.47-.17,1.93-.07,3.94-.17,6.03-.28-.11.63-.18,1.1-.22,1.43-.04.33-.06.68-.06,1.05,0,.29.03.6.08.91.06.31.12.76.19,1.35-4.19-.33-8.36-.5-12.51-.5,0,1.18,0,2.35-.03,3.53-.02,1.18-.03,2.35-.03,3.53,0,2.39.06,4.68.17,6.89,2.09,0,4.19-.05,6.28-.17,2.09-.11,4.2-.29,6.34-.55-.07.4-.13.77-.17,1.1-.04.33-.06.79-.06,1.38s.02,1.05.06,1.38c.04.33.09.61.17.83-.99-.04-2.21-.06-3.66-.08-1.45-.02-3.44-.03-5.98-.03h-8.73c-.83,0-1.45,0-1.87.03-.42.02-.78.05-1.07.08.13-2.28.22-4.6.29-6.97.06-2.37.1-5.08.1-8.13v-7.49c0-3.05-.03-5.76-.1-8.13Z" style="fill:#636569;"></path><path d="M158.18,25.42c-1.4-.06-2.79-.08-4.19-.08s-2.79.02-4.19.05c-1.4.04-2.79.09-4.19.17v3.14c0,3.05.04,5.76.11,8.13.07,2.37.18,4.69.33,6.97-.63-.07-1.3-.11-2.04-.11h-4.96c-.74,0-1.41.04-2.04.11.15-2.28.26-4.6.33-6.97s.11-5.08.11-8.13v-7.49c0-3.05-.04-5.76-.11-8.13s-.18-4.75-.33-7.13c.63.07,1.3.14,2.04.19.73.06,1.56.08,2.48.08s1.74-.03,2.48-.08c.73-.06,1.41-.12,2.04-.19-.18,2.39-.3,4.75-.36,7.08-.05,2.33-.08,5.02-.08,8.07.95.04,2.1.06,3.44.08,1.34.02,3,.03,4.99.03s3.6,0,4.85-.03c1.25-.02,2.41-.05,3.47-.08,0-3.05-.04-5.74-.11-8.07-.07-2.33-.18-4.69-.33-7.08.62.07,1.3.14,2.04.19s1.56.08,2.48.08,1.74-.03,2.48-.08c.73-.06,1.41-.12,2.04-.19-.15,2.39-.26,4.77-.33,7.13-.07,2.37-.11,5.08-.11,8.13v7.49c0,3.05.04,5.76.11,8.13.07,2.37.18,4.69.33,6.97-.63-.07-1.3-.11-2.04-.11h-4.96c-.73,0-1.41.04-2.04.11.15-2.28.26-4.6.33-6.97.07-2.37.11-5.08.11-8.13v-3.14c-1.4-.04-2.79-.08-4.19-.14Z" style="fill:#636569;"></path><path d="M179.08,13.08c-.06-2.37-.16-4.75-.29-7.13,1.65.04,3.29.09,4.9.17,1.62.07,3.25.11,4.9.11,2.72,0,5.13-.03,7.25-.08,2.11-.06,3.53-.12,4.27-.19-.15.59-.22,1.36-.22,2.31,0,.59.02,1.05.05,1.38.04.33.09.7.17,1.1-1.07-.07-2.23-.15-3.5-.22-1.27-.07-2.5-.15-3.69-.22-1.19-.07-2.27-.13-3.22-.17-.96-.04-1.63-.05-2.04-.05-.15,2.02-.23,4.02-.25,6.01-.02,1.98-.03,3.99-.03,6.01,2.39-.04,4.55-.09,6.47-.17,1.93-.07,3.94-.17,6.03-.28-.11.63-.19,1.1-.22,1.43-.04.33-.05.68-.05,1.05,0,.29.03.6.08.91.06.31.12.76.19,1.35-4.19-.33-8.36-.5-12.51-.5,0,1.18,0,2.35-.03,3.53-.02,1.18-.03,2.35-.03,3.53,0,2.39.05,4.68.17,6.89,2.09,0,4.19-.05,6.28-.17,2.09-.11,4.21-.29,6.34-.55-.07.4-.13.77-.17,1.1-.04.33-.05.79-.05,1.38s.02,1.05.05,1.38c.04.33.09.61.17.83-.99-.04-2.21-.06-3.66-.08-1.45-.02-3.44-.03-5.98-.03h-8.73c-.83,0-1.45,0-1.87.03-.42.02-.78.05-1.07.08.13-2.28.22-4.6.29-6.97.06-2.37.1-5.08.1-8.13v-7.49c0-3.05-.03-5.76-.1-8.13Z" style="fill:#636569;"></path><path d="M209.64,31.45c-.29,4.11-.59,8.23-.88,12.34-.44-.07-.88-.11-1.32-.11h-2.56c-.42,0-.85.04-1.3.11,1.18-6.32,2.22-12.6,3.14-18.84.92-6.24,1.76-12.58,2.53-19.01.4.07.78.14,1.13.19.35.06.72.08,1.13.08.33,0,.68-.03,1.05-.08.37-.06.75-.12,1.16-.19.99,2.2,2.03,4.44,3.11,6.72,1.08,2.28,2.17,4.55,3.25,6.8,1.08,2.26,2.17,4.47,3.25,6.64,1.08,2.17,2.12,4.22,3.11,6.17,2.2-4.11,4.4-8.42,6.58-12.92,2.19-4.5,4.27-8.97,6.25-13.42.92.18,1.71.28,2.37.28.62,0,1.4-.09,2.31-.28.37,3.16.76,6.56,1.18,10.19.42,3.64.84,7.19,1.24,10.66s.81,6.71,1.21,9.72c.4,3.01.77,5.44,1.1,7.27-.74-.07-1.48-.11-2.23-.11h-4.49c-.77,0-1.54.04-2.31.11-.18-3.78-.49-7.88-.91-12.29-.42-4.41-.85-8.78-1.3-13.11h-.11c-2.09,4.33-4.15,8.59-6.17,12.78-2.02,4.19-4.02,8.39-6.01,12.62-.18-.04-.36-.06-.52-.08s-.34-.03-.52-.03-.36,0-.52.03-.34.05-.52.08c-1.98-4.11-3.96-8.23-5.92-12.34-1.97-4.11-3.99-8.28-6.09-12.51h-.11c-.59,4.22-1.03,8.39-1.32,12.51Z" style="fill:#636569;"></path><path d="M2.09,56.88c-.02-.7-.05-1.39-.1-2.09.18.02.38.04.6.06.22.02.46.02.73.02s.51,0,.73-.02c.22-.02.41-.04.6-.06-.04.7-.08,1.4-.1,2.09-.02.7-.03,1.49-.03,2.39v2.2c0,.61,0,1.21,0,1.78s.01,1.07.02,1.49c.61,0,1.23-.02,1.84-.05.61-.03,1.23-.09,1.86-.16-.02.12-.04.23-.05.32-.01.1-.02.23-.02.4s0,.31.02.4.03.18.05.24c-.29-.01-.65-.02-1.08-.03-.43,0-1.01,0-1.75,0h-2.56c-.24,0-.43,0-.55,0-.12,0-.23.01-.32.03.04-.67.08-1.35.1-2.05.02-.7.03-1.49.03-2.38v-2.2c0-.89-.01-1.69-.03-2.39Z" style="fill:#8e9093;"></path><path d="M31.55,65.89c-.26-.02-.5-.03-.74-.03h-1.37c-.23,0-.46.01-.69.03-.17-.53-.35-1.07-.53-1.62-.18-.55-.38-1.1-.58-1.65-.34,0-.69-.02-1.03-.02s-.69,0-1.03,0c-.28,0-.56,0-.84,0s-.56.01-.84.02c-.22.55-.41,1.1-.6,1.65s-.35,1.09-.5,1.62c-.13-.02-.26-.03-.38-.03h-.77c-.13,0-.27.01-.42.03.13-.28.3-.67.52-1.16.22-.49.45-1.06.71-1.68.26-.63.54-1.3.83-2.01.3-.72.59-1.44.89-2.18.3-.73.59-1.45.87-2.17.29-.71.55-1.38.78-1.99.11.02.21.04.31.06.1.02.2.02.31.02s.21,0,.31-.02.2-.04.31-.06c.34.92.71,1.9,1.11,2.94s.79,2.07,1.19,3.08c.4,1.01.79,1.96,1.16,2.87.38.91.72,1.67,1.03,2.3ZM25.82,57.83c-.28.65-.54,1.29-.79,1.92s-.49,1.28-.73,1.93h2.96c-.24-.66-.47-1.3-.7-1.93s-.48-1.27-.74-1.92Z" style="fill:#8e9093;"></path><path d="M45.42,56.88c-.02-.7-.06-1.39-.11-2.09.18.02.38.04.6.06.22.02.46.02.73.02.46,0,.95-.01,1.46-.04.51-.03.99-.04,1.45-.04s.93.05,1.33.15c.4.1.74.25,1.03.44s.51.46.67.78c.16.32.23.7.23,1.14s-.09.82-.28,1.14c-.18.32-.41.58-.67.79-.27.21-.55.37-.86.49-.31.12-.59.2-.84.24v.03c.25.01.54.07.87.17.33.1.65.26.95.48s.56.49.77.83c.21.34.31.75.31,1.24,0,.58-.11,1.08-.31,1.49s-.49.74-.84,1c-.35.26-.75.44-1.2.54-.45.1-.92.15-1.4.15-.43,0-.83,0-1.2-.02-.37-.01-.76-.02-1.17-.02h-.9c-.31,0-.55.01-.73.03.05-.67.08-1.35.11-2.05.02-.7.04-1.49.04-2.38v-2.2c0-.89-.01-1.69-.04-2.39ZM50.33,56.86c-.06-.23-.16-.43-.3-.6-.14-.17-.32-.3-.53-.4-.22-.1-.48-.15-.81-.15-.24,0-.4,0-.49,0-.09,0-.19.02-.3.04-.02.4-.04.8-.05,1.21-.01.41-.02.75-.02,1.03s0,.57,0,.83c0,.26,0,.54,0,.82h.73c.23,0,.45-.04.67-.13.22-.09.42-.21.59-.38.17-.17.31-.38.42-.64.11-.26.16-.56.16-.91,0-.26-.03-.5-.09-.74ZM50.02,61.13c-.34-.37-.83-.56-1.48-.56-.15,0-.28,0-.39,0-.11,0-.21,0-.31,0,0,.23,0,.46,0,.7,0,.24,0,.53,0,.86,0,.26,0,.52,0,.79s0,.53,0,.79,0,.5,0,.71,0,.39,0,.53c.15,0,.29.02.42.02s.29,0,.47,0c.24,0,.46-.05.68-.15.22-.1.4-.24.57-.43s.29-.42.39-.69.15-.58.15-.94c0-.75-.17-1.32-.51-1.69Z" style="fill:#8e9093;"></path><path d="M67.11,58.12c.3-.7.71-1.31,1.25-1.84.54-.53,1.19-.94,1.96-1.25.77-.3,1.62-.45,2.55-.45.86,0,1.67.12,2.41.36.74.24,1.39.59,1.94,1.07.55.47.98,1.08,1.3,1.8.32.73.48,1.58.48,2.55,0,.81-.15,1.56-.46,2.26s-.73,1.31-1.28,1.83c-.54.52-1.19.93-1.95,1.22-.75.29-1.58.44-2.49.44-.85,0-1.65-.11-2.4-.32-.75-.21-1.4-.55-1.96-1.02s-.99-1.07-1.32-1.79c-.32-.73-.48-1.6-.48-2.61,0-.8.15-1.55.44-2.25ZM76.09,58.13c-.17-.56-.41-1.03-.72-1.42-.31-.39-.68-.69-1.12-.9-.44-.21-.91-.32-1.43-.32-.55,0-1.04.13-1.48.4-.44.26-.81.62-1.11,1.08-.3.45-.53.98-.69,1.59-.16.61-.23,1.26-.23,1.95,0,.86.09,1.59.27,2.18.18.59.43,1.07.74,1.43.31.36.67.62,1.08.78.41.16.84.24,1.29.24.48,0,.95-.1,1.39-.31.44-.2.83-.52,1.16-.94s.59-.95.79-1.6c.2-.65.3-1.41.3-2.3,0-.7-.09-1.33-.26-1.88Z" style="fill:#8e9093;"></path><path d="M95.6,60.8v.66c0,.89.01,1.69.03,2.38.02.7.05,1.38.1,2.05-.18-.02-.38-.03-.6-.03h-1.45c-.22,0-.41.01-.6.03.04-.67.08-1.35.1-2.05.02-.7.03-1.49.03-2.38v-2.2c0-.89-.01-1.69-.03-2.39-.02-.7-.05-1.39-.1-2.09.18.02.38.04.6.06.22.02.46.02.73.02.29,0,.62-.01.99-.04s.83-.04,1.38-.04c.41,0,.76.01,1.05.03.29.02.54.05.75.1.21.04.39.1.55.17.16.07.3.15.44.25.32.24.58.53.77.88.19.35.28.77.28,1.25,0,.79-.22,1.43-.65,1.92-.43.5-1.05.85-1.86,1.05.52.92,1.07,1.83,1.67,2.74s1.19,1.81,1.78,2.71c-.25-.02-.49-.03-.73-.03h-1.46c-.24,0-.49.01-.74.03l-2.89-5.09h-.15ZM98.01,56.69c-.1-.28-.25-.49-.44-.64-.2-.15-.46-.24-.78-.28s-.7-.06-1.14-.06c-.03,1.47-.05,2.93-.05,4.4.06.01.13.02.19.02.06,0,.12,0,.17,0,.71,0,1.26-.19,1.63-.57.38-.38.57-.96.57-1.74,0-.47-.05-.85-.15-1.13Z" style="fill:#8e9093;"></path><path d="M124.45,65.89c-.26-.02-.51-.03-.74-.03h-1.38c-.23,0-.46.01-.69.03-.17-.53-.35-1.07-.53-1.62-.18-.55-.38-1.1-.58-1.65-.34,0-.69-.02-1.03-.02s-.69,0-1.03,0c-.28,0-.56,0-.84,0s-.56.01-.84.02c-.22.55-.41,1.1-.6,1.65s-.35,1.09-.5,1.62c-.13-.02-.26-.03-.38-.03h-.77c-.13,0-.27.01-.42.03.13-.28.3-.67.52-1.16.22-.49.45-1.06.71-1.68.26-.63.54-1.3.83-2.01.3-.72.59-1.44.89-2.18.3-.73.59-1.45.87-2.17.29-.71.55-1.38.78-1.99.11.02.21.04.31.06.1.02.2.02.31.02s.21,0,.31-.02.2-.04.31-.06c.34.92.71,1.9,1.11,2.94.39,1.05.79,2.07,1.19,3.08.4,1.01.79,1.96,1.16,2.87s.72,1.67,1.04,2.3ZM118.72,57.83c-.28.65-.54,1.29-.79,1.92s-.49,1.28-.73,1.93h2.96c-.24-.66-.47-1.3-.7-1.93s-.48-1.27-.74-1.92Z" style="fill:#8e9093;"></path><path d="M139.04,56.56c0-.26-.02-.45-.04-.56-.16,0-.36,0-.6.02-.24.01-.49.02-.76.04s-.54.04-.82.06c-.28.03-.54.06-.78.09.02-.12.04-.24.06-.35.02-.12.02-.24.02-.36s0-.24-.02-.36-.04-.24-.06-.36c.37.01.7.02.99.03.3.01.6.02.91.03.31,0,.64.01,1,.02.36,0,.79,0,1.3,0s.94,0,1.3,0c.36,0,.69,0,.99-.02.3,0,.6-.01.88-.03.28,0,.6-.02.93-.03-.02.12-.04.24-.06.36s-.02.24-.02.36,0,.24.02.36c.02.12.04.24.06.35-.22-.03-.46-.06-.73-.09-.27-.03-.54-.05-.8-.06s-.51-.03-.75-.04c-.24,0-.44-.02-.6-.02-.01.05-.02.13-.02.23,0,.1,0,.21,0,.34v4.9c0,.89,0,1.69.03,2.38s.05,1.38.1,2.05c-.18-.02-.38-.03-.6-.03h-1.45c-.22,0-.41.01-.6.03.04-.67.08-1.35.1-2.05.02-.7.03-1.49.03-2.38v-4.04c0-.31,0-.6,0-.86Z" style="fill:#8e9093;"></path><path d="M157.32,58.12c.3-.7.71-1.31,1.25-1.84.54-.53,1.19-.94,1.96-1.25.77-.3,1.62-.45,2.56-.45.86,0,1.67.12,2.41.36.74.24,1.39.59,1.94,1.07.55.47.98,1.08,1.3,1.8.32.73.48,1.58.48,2.55,0,.81-.15,1.56-.46,2.26s-.73,1.31-1.28,1.83c-.54.52-1.19.93-1.95,1.22s-1.58.44-2.49.44c-.85,0-1.65-.11-2.4-.32-.75-.21-1.4-.55-1.96-1.02-.56-.47-1-1.07-1.32-1.79-.32-.73-.48-1.6-.48-2.61,0-.8.15-1.55.44-2.25ZM166.3,58.13c-.17-.56-.41-1.03-.72-1.42-.31-.39-.68-.69-1.12-.9-.44-.21-.91-.32-1.43-.32-.55,0-1.04.13-1.48.4-.44.26-.81.62-1.11,1.08-.3.45-.53.98-.69,1.59-.16.61-.23,1.26-.23,1.95,0,.86.09,1.59.27,2.18.18.59.43,1.07.74,1.43.31.36.67.62,1.08.78.41.16.84.24,1.29.24.48,0,.95-.1,1.39-.31s.83-.52,1.16-.94.59-.95.79-1.6c.2-.65.3-1.41.3-2.3,0-.7-.09-1.33-.26-1.88Z" style="fill:#8e9093;"></path><path d="M185.82,60.8v.66c0,.89.01,1.69.03,2.38.02.7.05,1.38.1,2.05-.18-.02-.38-.03-.6-.03h-1.45c-.22,0-.41.01-.6.03.04-.67.08-1.35.1-2.05.02-.7.03-1.49.03-2.38v-2.2c0-.89-.01-1.69-.03-2.39-.02-.7-.05-1.39-.1-2.09.18.02.38.04.6.06.21.02.46.02.73.02.29,0,.62-.01.99-.04.37-.03.83-.04,1.38-.04.41,0,.76.01,1.05.03.29.02.54.05.75.1.21.04.39.1.55.17.16.07.3.15.44.25.32.24.58.53.77.88.19.35.28.77.28,1.25,0,.79-.22,1.43-.65,1.92s-1.05.85-1.86,1.05c.52.92,1.07,1.83,1.67,2.74.59.91,1.19,1.81,1.78,2.71-.25-.02-.49-.03-.73-.03h-1.46c-.24,0-.49.01-.74.03l-2.89-5.09h-.15ZM188.23,56.69c-.1-.28-.25-.49-.44-.64s-.46-.24-.78-.28c-.32-.04-.7-.06-1.14-.06-.03,1.47-.05,2.93-.05,4.4.06.01.13.02.19.02s.12,0,.17,0c.71,0,1.26-.19,1.63-.57.38-.38.57-.96.57-1.74,0-.47-.05-.85-.15-1.13Z" style="fill:#8e9093;"></path><path d="M205.56,56.88c-.02-.7-.05-1.39-.1-2.09.18.02.38.04.6.06.22.02.46.02.73.02s.51,0,.73-.02c.22-.02.41-.04.6-.06-.04.7-.08,1.4-.1,2.09-.02.7-.03,1.49-.03,2.39v2.2c0,.89.01,1.69.03,2.38.02.7.05,1.38.1,2.05-.18-.02-.38-.03-.6-.03h-1.45c-.22,0-.41.01-.6.03.04-.67.08-1.35.1-2.05s.03-1.49.03-2.38v-2.2c0-.89,0-1.69-.03-2.39Z" style="fill:#8e9093;"></path><path d="M222.94,56.88c-.02-.7-.05-1.39-.09-2.09.48.01.96.03,1.44.05.47.02.95.03,1.44.03.8,0,1.51,0,2.13-.02.62-.02,1.04-.04,1.25-.06-.04.17-.07.4-.07.68,0,.17,0,.31.02.4.01.1.03.2.05.32-.31-.02-.66-.04-1.03-.06-.37-.02-.73-.04-1.08-.06-.35-.02-.67-.04-.95-.05-.28,0-.48-.02-.6-.02-.04.59-.07,1.18-.07,1.76,0,.58,0,1.17,0,1.76.7-.01,1.33-.03,1.9-.05.57-.02,1.16-.05,1.77-.08-.03.18-.05.32-.06.42-.01.1-.02.2-.02.31,0,.09,0,.18.02.27s.04.22.06.4c-1.23-.1-2.45-.15-3.67-.15,0,.34,0,.69,0,1.03s0,.69,0,1.03c0,.7.02,1.38.05,2.02.61,0,1.23-.02,1.84-.05.61-.03,1.23-.09,1.86-.16-.02.12-.04.23-.05.32-.01.1-.02.23-.02.4s0,.31.02.4.03.18.05.24c-.29-.01-.65-.02-1.08-.03s-1.01,0-1.75,0h-2.56c-.24,0-.43,0-.55,0s-.23.01-.32.03c.04-.67.07-1.35.09-2.05s.03-1.49.03-2.38v-2.2c0-.89,0-1.69-.03-2.39Z" style="fill:#8e9093;"></path><path d="M246.27,55.58c-.5,0-.9.14-1.21.44-.31.29-.47.63-.47,1.02s.12.72.36.98c.24.25.55.48.91.69.37.2.76.4,1.18.59s.81.42,1.18.7.67.61.91,1c.24.39.36.9.36,1.51,0,.54-.1,1.03-.31,1.48-.2.45-.5.83-.87,1.15-.38.32-.83.56-1.35.73-.52.17-1.11.25-1.75.25-.58,0-1.1-.06-1.56-.19-.46-.12-.81-.28-1.04-.46.11-.38.2-.72.27-1.03.08-.31.14-.65.19-1.02h.31c.04.24.12.46.24.67.12.21.27.4.45.56.18.16.41.29.66.38.26.09.55.14.87.14.65,0,1.12-.16,1.43-.48.31-.32.46-.71.46-1.16,0-.41-.12-.74-.36-1-.24-.26-.53-.49-.89-.69s-.74-.39-1.16-.58-.81-.42-1.16-.69c-.36-.27-.65-.6-.89-.99-.24-.39-.36-.9-.36-1.51,0-.56.1-1.06.3-1.49.2-.43.47-.79.8-1.08.33-.29.72-.51,1.16-.66.44-.15.9-.23,1.38-.23.58,0,1.09.07,1.53.21.44.14.81.33,1.12.58-.1.25-.18.49-.25.72s-.16.53-.27.88h-.24c-.34-.93-1-1.39-1.96-1.39Z" style="fill:#8e9093;"></path><g style="clip-path:url(#clippath);"><path d="M98.5,34.54c-3.3-11.4,5.83-26.05,20.38-32.73,9.54-4.38,19.05-4.24,25.39-.41-5.47-2.7-11.69-1.52-20.27,2.42-13.05,5.99-19.69,19.78-17.15,28.56,2.54,8.78,17.33,9.92,30.38,3.92,13.05-5.99,15.36-19.47,12.82-28.25-.18-.61-.4-1.2-.68-1.75.78,1.22,1.4,2.57,1.82,4.05,3.3,11.4-2.11,29.81-16.66,36.49-14.55,6.68-32.73-.9-36.03-12.3" style="fill:#dbdcdd;"></path><path d="M87,35.03c-4.18-14.47,9.46-34.02,30.47-43.67,21.01-9.65,41.44-5.73,45.62,8.74,4.18,14.47-9.46,34.02-30.47,43.67-21.01,9.65-41.44,5.73-45.62-8.74M98.88,35.37c3.25,11.26,16.91,15.32,30.5,9.08,13.59-6.24,21.97-20.42,18.71-31.68-3.26-11.26-16.91-15.32-30.5-9.08-13.59,6.24-21.97,20.42-18.71,31.68" style="fill:#636569;"></path><path d="M104.24,35.41c-3.3-11.4,5.83-26.05,20.38-32.73,9.54-4.38,19.05-4.24,25.39-.41-5.47-2.7-13.87-2.33-22.46,1.61-13.06,5.99-21.58,17.97-19.04,26.74,2.54,8.78,15.18,11.04,28.23,5.04,13.06-5.99,21.58-17.97,19.04-26.75-.18-.61-.4-1.2-.68-1.75.78,1.22,1.4,2.57,1.82,4.05,3.3,11.4-5.83,26.05-20.38,32.73-14.55,6.68-29.01,2.85-32.31-8.54" style="fill:#a2c03a;"></path></g><polygon points="101.12 25.46 79.72 22.35 79.72 28.56 101.12 25.46" style="fill:#a2c03a;"></polygon></svg>